<svg xmlns="http://www.w3.org/2000/svg" viewBox="0 0 50 50">
  <path
    d="M8.23,19.82,10,21.58,7.58,24,5.81,22.23ZM20,16.36l-1.48,1.48-1.29,5.54L15,21.22,13.34,23,7,16.61l1.69-1.69L6.61,12.8l5.58-1.3,1.51-1.4c2-1.87,5.18-2.2,8.17-1.95C22,12.26,21.72,14.6,20,16.36ZM26.26,43A17.92,17.92,0,0,1,8.41,26.44l3-.32a14.89,14.89,0,1,0,14.83-16V7a18,18,0,0,1,0,35.92ZM15.35,11.86l-4.86,4.75,2.85,2.85L18.2,14.6c1-1,1.11-2.38,1.18-3.93A6.5,6.5,0,0,0,15.35,11.86Zm10.91,6.62A6.52,6.52,0,1,1,19.74,25,6.51,6.51,0,0,1,26.26,18.48Zm-4,6.52a4,4,0,0,0,4,4,4,4,0,1,0-4-4Z"
    fill="currentColor"
  />
</svg>
