<svg xmlns="http://www.w3.org/2000/svg" viewBox="0 0 50 50">
  <path
    d="M8.44,33.46c-3.63-.72-7-2.88-7-6,0-3.31,3.6-5.11,7.63-6.08a14.73,14.73,0,0,1,26.2,0C40.08,22.55,43,24.64,43,27.48c0,3.24-3.85,5.33-7,5.94a14.72,14.72,0,0,1-27.54,0Zm-1-5.26A13.68,13.68,0,0,1,8,24.32c-1.83.57-4,1.65-4,3.16S5.85,30,7.65,30.62A13.53,13.53,0,0,1,7.43,28.2Zm26,3.21a12.24,12.24,0,0,0,.43-3.21,11.63,11.63,0,1,0-23.25,0A10.94,10.94,0,0,0,11,31.44a59.6,59.6,0,0,0,11.16.9A57.84,57.84,0,0,0,33.39,31.41ZM32,34.14a58.86,58.86,0,0,1-9.76.69,58.73,58.73,0,0,1-9.75-.69,11.36,11.36,0,0,0,9.75,5.69A11.2,11.2,0,0,0,32,34.14Zm4.46-21a6.07,6.07,0,1,1,6.05,6.08A6.06,6.06,0,0,1,36.41,13.12Zm4.07,14.36c0-1.36-1.77-2.41-4-3.16A15.27,15.27,0,0,1,37,28.2a12.47,12.47,0,0,1-.22,2.38C39,29.79,40.48,28.78,40.48,27.48Zm5.58-14.36a3.59,3.59,0,1,0-3.6,3.57A3.58,3.58,0,0,0,46.06,13.12Z"
    fill="currentColor"
  />
</svg>
