<svg xmlns="http://www.w3.org/2000/svg" viewBox="0 0 50 50">
  <path
    d="M15.07,42.73A12.59,12.59,0,0,1,8.3,31.53V16.74h6a2.51,2.51,0,0,1-.43-1.37,4.21,4.21,0,0,1,1.26-3,1.16,1.16,0,0,0,.36-.79,1.27,1.27,0,0,0-.36-.83L13.88,9.47l2.19-2.2L17.3,8.53a4.37,4.37,0,0,1,1.26,3,4.18,4.18,0,0,1-1.26,3,1,1,0,0,0-.36.79,1.3,1.3,0,0,0,.36.83l.46.54H24a2.27,2.27,0,0,1-.47-1.37,4.26,4.26,0,0,1,1.26-3,1.08,1.08,0,0,0,.36-.79,1.21,1.21,0,0,0-.36-.83L23.56,9.47l2.2-2.2L27,8.53a4.26,4.26,0,0,1,1.22,3,4.3,4.3,0,0,1-1.22,3,1,1,0,0,0-.4.79,1.24,1.24,0,0,0,.4.83l.46.54h7a7.26,7.26,0,1,1,0,14.51h-.9l-.07,1.43a12.58,12.58,0,0,1-6.7,10Zm10.87-3.1a9.49,9.49,0,0,0,4.46-8.1V19.83h-19v11.7a9.61,9.61,0,0,0,4.5,8.1Zm7.59-11.48h.9A4.21,4.21,0,0,0,38.61,24a4.16,4.16,0,0,0-4.18-4.14h-.9Z"
    fill="currentColor"
  />
</svg>
