<svg version="1.1" xmlns="http://www.w3.org/2000/svg" viewBox="0, 0, 70, 70">
  <path
    d="M32.53,28.052 C29.952,30.698 29.952,34.916 32.53,37.561 C34.455,39.496 37.357,40.079 39.881,39.038 C42.404,37.997 44.05,35.536 44.05,32.807 C44.05,30.077 42.404,27.617 39.881,26.575 C37.357,25.534 34.455,26.117 32.53,28.052 z M39.583,35.084 C38.305,36.286 36.313,36.286 35.035,35.084 C33.808,33.816 33.808,31.804 35.035,30.536 C36.291,29.28 38.327,29.28 39.583,30.536 C40.839,31.792 40.839,33.828 39.583,35.084 z"
    fill="currentColor"
  />
  <path
    d="M22.517,57.593 L25.533,60.651 L29.826,56.465 L26.81,53.399 z"
    fill="currentColor"
  />
  <path
    d="M56.479,13.548 C54.024,11.1 50.703,10 47.027,10 C40.435,10 32.31,13.782 26.229,19.934 C25.093,21.104 24.02,22.334 23.014,23.617 L15.208,23.617 C14.501,23.633 13.871,24.067 13.604,24.722 C13.338,25.377 13.486,26.128 13.981,26.633 L18.48,31.175 C17.965,32.282 17.538,33.428 17.202,34.602 C15.57,40.378 27.627,52.945 34.112,52.945 C35.34,52.945 37.589,52.079 39.328,51.306 L43.926,55.911 C44.429,56.414 45.183,56.566 45.841,56.298 C46.499,56.03 46.933,55.394 46.942,54.684 L46.942,46.509 C47.914,45.799 49.39,44.38 50.057,43.749 C60.176,33.729 63.036,20.14 56.479,13.548 z M46.431,41.343 C43.06,44.508 37.795,47.985 34.063,48.751 C29.805,48.084 21.751,40.009 21.446,35.723 C22.86,31.409 25.216,27.463 28.343,24.171 C31.209,21.019 34.663,18.459 38.512,16.635 C40.144,21.602 48.68,30.117 53.484,31.607 C52.15,34.9 49.496,38.427 46.431,41.343 z M54.762,28.315 C52.306,27.392 49.496,25.299 47.041,22.744 C43.926,19.523 42.138,16.557 41.833,15.336 C43.744,14.713 45.749,14.432 47.758,14.506 C49.849,14.517 51.857,15.321 53.378,16.755 C54.544,18.013 55.288,19.603 55.507,21.304 C55.823,23.667 55.567,26.071 54.762,28.315 z"
    fill="currentColor"
  />
  <path
    d="M10.099,57.643 L13.115,60.708 L22.262,51.561 L19.196,48.546 z"
    fill="currentColor"
  />
  <path
    d="M17.309,44.096 L14.293,41.038 L10,45.225 L13.016,48.29 z"
    fill="currentColor"
  />
</svg>
